<svg xmlns="http://www.w3.org/2000/svg" viewBox="0 0 367.29 82"><path fill="#e31937" d="M0 0h10v82H0zm73 0h10v82H73zM20 27h43v10H20zm0 19h43v10H20z"/><path fill="#162732" d="M134.12 56.08V43.2h-12.25v12.88h-4.57v-29.5h4.57v12.6h12.25v-12.6h4.58v29.5h-4.58zm14.66-29.5h4.58v29.5h-4.58zm25.43 29.5h-3.56l-9.92-29.5h4.75l6.95 21.46 6.95-21.46h4.83l-10 29.5zm17.42 0v-29.5h19.28v4.02h-14.7v8.62h12.54v3.98h-12.54v8.86h14.7v4.02h-19.28zm27.69 0v-29.5h4.58v25.48h14.53v4.02h-19.11zm40.99-23.91a6.45 6.45 0 0 0-9 0c-1.44 1.57-1.76 3.2-1.76 9.2s.29 7.58 1.78 9.16a6.45 6.45 0 0 0 9 0c1.48-1.57 1.78-3.23 1.78-9.16s-.3-7.58-1.78-9.16m3.47 21a11.6 11.6 0 0 1-15.89 0c-3-2.9-2.92-6.17-2.92-11.85s0-9 2.92-11.85a11.6 11.6 0 0 1 15.89 0c3 2.9 2.88 6.17 2.88 11.85s.09 9-2.88 11.85m21.94 3.16a11.05 11.05 0 0 1-7.92-3.15c-2.95-2.94-2.95-6.22-2.95-11.85s0-9 2.93-11.85a11.06 11.06 0 0 1 7.94-3.15c5.55 0 9.71 3.19 10.77 9.07h-4.64c-.72-3-2.76-5.06-6.1-5.06a6.1 6.1 0 0 0-4.45 1.78c-1.48 1.57-1.82 3.27-1.82 9.2s.34 7.62 1.82 9.2a6.11 6.11 0 0 0 4.45 1.78c3.35 0 5.43-2.07 6.15-5.05h4.62a10.35 10.35 0 0 1-10.8 9.08m19.12-29.79h4.58v29.5h-4.58zm25.32 4.02v25.48h-4.57V30.6h-8.31v-4.02h21.19v4.02h-8.31zm28.09 13.34v12.14h-4.58V43.94l-9.03-17.36h5l6.32 12.97 6.31-12.97h5.01l-9.03 17.36z"/></svg>